<?xml version="1.0" standalone="no"?>
<!DOCTYPE svg PUBLIC "-//W3C//DTD SVG 20010904//EN"
 "http://www.w3.org/TR/2001/REC-SVG-20010904/DTD/svg10.dtd">
<svg version="1.0" xmlns="http://www.w3.org/2000/svg"
 width="15.000000pt" height="15.000000pt" viewBox="0 0 15.000000 15.000000"
 preserveAspectRatio="xMidYMid meet">
<metadata>
Created by potrace 1.16, written by Peter Selinger 2001-2019
</metadata>
<g transform="translate(0.000000,15.000000) scale(0.001531,-0.001531)"
fill="#000000" stroke="none">
<path d="M4095 9293 c-22 -2 -88 -13 -148 -24 -655 -122 -1165 -643 -1282
-1310 -8 -46 -15 -100 -15 -120 l0 -36 -71 -12 c-175 -29 -311 -150 -354 -316
-18 -73 -21 -474 -4 -557 31 -145 143 -269 287 -317 54 -18 86 -21 255 -21
l194 0 33 -97 c101 -298 247 -541 445 -738 60 -61 122 -121 137 -132 29 -23
45 -69 59 -168 25 -180 -67 -384 -230 -509 l-56 -43 -185 -6 c-107 -3 -220
-12 -268 -22 -482 -94 -884 -448 -1030 -905 -71 -221 -67 -134 -67 -1553 l0
-1279 33 -29 32 -29 1693 0 1692 0 115 -116 c140 -140 184 -169 260 -168 72 0
107 20 200 110 l75 72 100 -43 100 -42 5 -124 c6 -142 21 -180 93 -227 40 -27
43 -27 241 -30 224 -4 256 1 313 51 58 51 73 95 73 223 l0 110 53 19 c28 10
74 29 100 42 l49 24 86 -83 c68 -66 97 -87 134 -97 51 -15 104 -9 152 16 46
24 294 276 311 317 20 46 19 129 -1 169 -9 18 -50 66 -91 109 l-76 76 36 84
c19 45 38 93 41 105 7 20 13 22 135 25 121 3 130 5 168 31 22 15 50 46 64 70
23 41 24 48 24 252 0 196 -1 213 -22 250 -47 88 -88 107 -247 114 l-119 6 -10
30 c-5 17 -23 60 -40 98 l-30 67 76 79 c43 43 84 95 92 115 20 46 19 129 -1
169 -22 44 -271 294 -316 318 -44 22 -124 25 -171 6 -18 -8 -67 -49 -111 -92
l-78 -77 -42 17 c-22 10 -68 28 -101 40 l-60 23 -5 123 c-6 140 -16 169 -79
219 -37 30 -38 33 -45 111 -43 516 -398 975 -889 1148 -149 52 -262 71 -467
77 -215 7 -215 7 -323 125 -110 118 -165 266 -153 410 11 137 24 164 121 247
97 83 214 219 291 338 49 77 55 82 96 88 70 11 230 53 319 84 126 44 211 85
294 143 100 69 170 147 214 238 30 65 36 87 39 165 2 60 11 110 24 146 18 48
22 84 26 272 3 139 0 241 -7 285 -32 190 -173 332 -363 364 l-66 11 -7 61
c-75 673 -555 1223 -1209 1387 -169 43 -369 58 -541 43z m408 -223 c444 -86
809 -365 1002 -765 76 -157 135 -364 135 -471 l0 -34 -61 0 -60 0 -15 38 c-94
240 -274 464 -483 601 -569 374 -1414 261 -1820 -244 -72 -90 -158 -233 -197
-327 l-28 -68 -63 0 -64 0 6 48 c44 333 175 603 405 832 196 196 420 321 680
379 131 29 126 28 302 30 120 1 181 -4 261 -19z m-3 -640 c436 -89 729 -362
854 -793 114 -392 74 -841 -111 -1263 -41 -94 -47 -102 -76 -108 -72 -13 -311
-36 -437 -41 -74 -3 -151 -8 -171 -10 -33 -4 -38 -2 -49 25 -20 48 -109 125
-169 145 -75 24 -162 17 -231 -21 -62 -33 -95 -70 -128 -143 -21 -45 -24 -64
-20 -125 13 -195 184 -316 370 -262 63 18 142 82 172 138 l19 35 201 12 c111
6 230 15 266 18 l64 6 -34 -44 c-171 -217 -411 -373 -653 -424 -87 -19 -149
-19 -242 0 -512 106 -929 654 -1031 1355 -22 155 -15 442 15 581 89 413 304
699 633 841 237 102 506 130 758 78z m-1640 -1246 l0 -406 -137 4 c-149 4
-186 14 -239 66 -62 63 -68 89 -72 304 -2 124 0 217 8 252 14 70 59 131 119
163 40 21 57 23 183 23 l138 0 0 -406z m3115 371 c36 -22 57 -45 77 -84 l28
-53 0 -222 c0 -121 -4 -237 -10 -256 -13 -48 -63 -106 -113 -132 -37 -20 -58
-22 -182 -23 l-140 0 -3 403 -2 403 148 -3 c145 -3 150 -4 197 -33z m-25
-1000 c-77 -79 -232 -159 -407 -210 -48 -14 -88 -24 -89 -22 -2 1 16 59 40
127 l44 125 210 5 c116 3 214 8 218 13 4 4 10 5 12 2 3 -3 -10 -21 -28 -40z
m-1642 -387 c45 -43 18 -130 -43 -139 -94 -14 -141 103 -62 152 37 22 71 18
105 -13z m-370 -752 c238 -86 445 -77 703 28 14 6 17 -7 22 -101 8 -154 52
-282 138 -395 l39 -53 -586 -3 c-323 -1 -589 0 -591 2 -2 2 17 33 42 69 86
124 126 246 129 395 1 77 3 92 16 88 8 -2 48 -16 88 -30z m1682 -763 c234 -66
396 -160 553 -319 183 -186 282 -401 321 -696 l5 -38 -103 0 c-130 0 -189 -17
-239 -68 -48 -49 -57 -83 -57 -212 l0 -106 -106 -43 -106 -43 -82 81 c-46 44
-95 85 -110 91 -41 15 -124 12 -162 -6 -41 -19 -299 -275 -322 -319 -22 -41
-21 -131 2 -175 10 -19 52 -69 93 -111 l75 -76 -25 -49 c-13 -27 -32 -73 -41
-101 l-18 -53 -113 0 c-104 0 -117 -2 -166 -28 -43 -23 -59 -38 -82 -82 l-28
-54 3 -206 c3 -235 11 -261 87 -315 41 -29 49 -30 168 -35 l125 -5 40 -90 c21
-49 41 -94 44 -100 2 -5 -30 -45 -70 -87 -41 -42 -82 -90 -91 -107 l-16 -31
-1094 0 -1095 0 0 723 c0 667 -1 725 -18 757 -32 65 -101 79 -154 31 l-33 -29
-3 -741 -2 -741 -400 0 -401 0 3 1228 3 1227 23 80 c97 342 293 594 580 742
118 62 189 88 307 113 86 18 145 19 1360 17 1261 -3 1271 -3 1345 -24z m994
-1410 c1 -182 3 -185 141 -230 54 -18 140 -53 190 -78 91 -46 92 -46 128 -31
20 8 80 56 132 107 l96 93 110 -110 c103 -102 109 -110 92 -125 -10 -8 -57
-56 -105 -106 -107 -110 -109 -123 -48 -241 23 -42 56 -122 74 -176 24 -75 39
-105 60 -120 28 -21 36 -22 309 -26 4 0 7 -70 7 -155 l0 -155 -147 0 c-184 0
-188 -2 -227 -133 -15 -48 -47 -127 -71 -175 -69 -133 -67 -142 57 -269 l102
-103 -45 -47 c-24 -25 -73 -75 -108 -110 l-64 -64 -107 105 c-129 128 -128
127 -271 57 -54 -28 -137 -61 -183 -75 -115 -35 -117 -40 -122 -224 -3 -80 -5
-146 -7 -147 -1 -1 -71 1 -154 3 l-153 4 0 144 c0 180 0 180 -155 233 -61 20
-140 54 -176 74 -102 57 -114 54 -227 -55 -53 -51 -102 -100 -109 -108 -10
-13 -29 1 -124 96 l-111 111 92 89 c96 93 120 126 120 168 0 14 -23 71 -50
128 -28 57 -60 136 -72 176 -15 53 -30 80 -50 98 -28 23 -35 24 -174 24 l-144
0 0 155 0 155 130 0 c194 0 200 4 250 165 12 39 42 108 66 154 67 127 65 132
-61 260 l-105 107 110 109 110 109 103 -102 c130 -128 128 -127 282 -52 55 27
134 58 175 70 116 31 120 38 120 221 l0 150 157 -3 156 -3 1 -142z"/>
<path d="M6282 2771 c-332 -82 -563 -377 -564 -721 -1 -326 196 -601 507 -708
296 -101 652 11 829 262 99 140 135 243 143 411 7 147 -14 244 -79 375 -34 69
-60 103 -138 180 -77 78 -111 104 -180 138 -47 23 -121 51 -164 62 -101 26
-252 26 -354 1z m351 -214 c111 -41 174 -85 250 -179 169 -208 150 -512 -44
-709 -211 -214 -544 -214 -759 1 -171 171 -207 406 -97 629 62 127 214 243
360 277 84 19 208 11 290 -19z"/>
</g>
</svg>
